# xmcd
#
# Track frame offsets:
#	150
#	21853
#	42021
#	62009
#	78223
#	98884
#	126892
#	135277
#	154841
#	185105
#	206095
#	227636
#
# Disc length: 3103 seconds
#
# Revision: 1
# Processed by: cddbd v1.5.2PL0 Copyright (c) Steve Scherf et al.
# Submitted via: audiograbber 1.83.01
#
DISCID=990c1d0c
DTITLE=Wentus Blues Band - Family Meeting
DYEAR=2007
DGENRE=Blues
TTITLE0=I heard the angles singing
TTITLE1=Down the line
TTITLE2=Looking for trouble
TTITLE3=Hold the note
TTITLE4=Annie-Lee
TTITLE5=Blind Willie McTell
TTITLE6=Backroom delta
TTITLE7=Ride the red
TTITLE8=Ventilator Blues
TTITLE9=Raining in my heart
TTITLE10=Biscuit Roller
TTITLE11=Great final
EXTD=Disc 2
EXTT0=
EXTT1=
EXTT2=
EXTT3=
EXTT4=
EXTT5=
EXTT6=
EXTT7=
EXTT8=
EXTT9=
EXTT10=
EXTT11=
PLAYORDER=
